<?xml version="1.0" standalone="no"?><!DOCTYPE svg PUBLIC "-//W3C//DTD SVG 20010904//EN" "http://www.w3.org/TR/2001/REC-SVG-20010904/DTD/svg10.dtd"><svg xmlns="http://www.w3.org/2000/svg" version="1.0" width="512.000000pt" height="512.000000pt" viewBox="0 0 512.000000 512.000000" preserveAspectRatio="xMidYMid meet">

<g transform="translate(0.000000,512.000000) scale(0.100000,-0.100000)" fill="#ffffff" stroke="none">
<path d="M981 4825 c-76 -22 -145 -61 -197 -114 -33 -33 -136 -202 -361 -591 -377 -652 -397 -690 -413 -759 -35 -152 32 -333 158 -424 26 -19 365 -218 755 -442 l707 -408 0 -444 0 -443 -331 2 -331 3 -22 70 c-86 269 -320 470 -598 515 -145 23 -225 1 -266 -73 -15 -29 -17 -85 -20 -641 -2 -409 1 -626 8 -661 8 -36 20 -61 43 -83 58 -56 98 -62 242 -37 280 49 512 253 596 525 l17 55 433 5 c481 6 472 4 521 72 l23 33 5 457 5 457 615 -356 c338 -195 644 -369 680 -387 60 -29 73 -31 170 -31 97 0 110 2 172 32 76 36 145 95 185 159 16 24 33 44 38 44 6 0 98 -52 205 -114 l195 -114 7 -52 c18 -144 180 -202 274 -98 20 21 553 939 604 1038 82 161 -134 314 -254 181 -11 -12 -23 -21 -27 -21 -5 0 -98 52 -207 115 l-198 115 40 82 c41 80 41 83 41 192 0 107 -1 114 -34 181 -47 96 -112 156 -262 241 -68 39 -376 216 -684 394 -308 178 -627 362 -710 410 -82 47 -460 266 -840 485 -379 219 -712 407 -738 417 -68 26 -179 32 -246 13z m350 -434 c1685 -969 2799 -1617 2822 -1642 52 -57 57 -46 -309 -681 -184 -321 -347 -593 -360 -606 -48 -43 -76 -33 -317 107 -283 164 -1216 703 -2007 1159 -812 468 -796 458 -820 490 -16 20 -21 36 -17 62 5 33 646 1159 686 1204 19 21 47 34 77 35 11 1 122 -57 245 -128z m3120 -2372 c107 -62 198 -115 202 -119 7 -6 -248 -459 -271 -482 -5 -5 -389 206 -410 226 -4 5 275 486 282 486 2 0 91 -50 197 -111z m-4006 -598 c69 -40 140 -119 178 -199 30 -63 32 -73 32 -182 0 -108 -2 -119 -31 -180 -17 -36 -50 -87 -74 -113 -41 -46 -131 -107 -157 -107 -10 0 -13 88 -13 405 0 223 3 405 8 405 4 0 30 -13 57 -29z"/>
<path d="M1276 3988 c-91 -53 -103 -184 -24 -254 43 -38 517 -305 553 -311 22 -3 52 1 80 11 100 39 133 171 62 251 -12 13 -137 91 -277 171 -220 127 -262 148 -305 151 -39 3 -59 -1 -89 -19z"/>
</g>
</svg>